<svg viewBox="592.29 804.4 265.6 265.6" version="1.1" xmlns="http://www.w3.org/2000/svg" id="Layer_1" style="max-height: 500px" width="265.6" height="265.6">
  
  <defs>
    <style>
      .st0 {
        fill: #7dc3ff;
      }
    </style>
  </defs>
  <g>
    <g>
      <path d="M829.68,876.29l-28.03-16.18-2.19-1.27h-.04l-24.01,13.86,2.23,1.27,28.03,16.22,1.09.61v94.67l-80.85,46.74-1.09.61-1.09-.61-40.62-23.48-2.19-1.27-24.05,13.9,2.19,1.27,64.67,37.34,1.09.61,1.09-.61,104.9-60.61v-122.44l-1.14-.66v.03ZM642.83,890.81l1.09-.66,80.9-46.66,26.19,15.13,2.19,1.27,24.05-13.86-2.19-1.31-50.24-28.99-104.9,60.56-1.14.66v122.44l1.14.66,24.05-13.91-1.14-.66v-94.67h0Z" class="st0"/>
      <path d="M779.44,905.33l-28.03-16.18-2.19-1.27-22.21-12.86-2.19-1.27-21.56,12.46-33.1,19.11-1.09.66v64.37l1.05.61,37.04,21.38,2.19,1.27,14.39,8.31,1.09.61,1.09-.61,54.62-31.57v-64.37l-1.09-.66h0ZM778.34,969.08l-52.43,30.3-1.09.61-1.09-.61-12.2-7.04-2.19-1.27-37.04-21.38-1.05-.61v-61.83l1.14-.66,31.96-18.5,20.46-11.81,22.17,12.86h.04l2.19,1.27,28.03,16.18,1.09.66v61.83h0Z" class="st0"/>
      <polygon points="796.75 943.15 780.53 952.51 778.34 953.78 725.91 984.04 723.73 985.31 711.53 992.35 709.34 993.61 683.11 1008.74 659.05 1022.65 656.87 1021.38 680.92 1007.48 707.16 992.35 709.34 991.08 723.73 982.77 725.91 981.5 778.34 951.24 780.53 949.97 795.66 941.23 796.75 943.15" class="st0"/>
      <path d="M737.63,897.11l-2.23-1.27-10.58-6.12-21.56,12.42v24.88l20.46,11.81,1.09.61,1.09-.61,20.42-11.81v-24.88l-8.7-5.03h0ZM724.82,936.9l-19.37-11.15v-22.35l19.37-11.15,8.4,4.85,2.23,1.27,8.7,5.03v22.35l-19.33,11.15Z" class="st0"/>
      <path d="M737.63,921.97l-2.23-1.27-10.58-6.12-21.56,12.42v24.88l20.46,11.81,1.09.61,1.09-.61,20.42-11.81v-24.88l-8.7-5.03h0ZM724.82,961.76l-19.37-11.15v-22.35l19.37-11.15,8.4,4.85,2.23,1.27,8.7,5.03v22.35l-19.33,11.15Z" class="st0"/>
      <polygon points="777.25 846.03 753.2 859.9 727.01 875.02 724.82 876.29 704.36 888.1 703.26 886.22 724.82 873.76 751.01 858.63 775.06 844.72 777.25 846.03" class="st0"/>
      <polygon points="801.65 860.11 777.64 873.98 751.41 889.15 749.22 890.42 737.63 897.11 735.45 898.37 725.08 904.37 723.99 902.44 733.22 897.11 735.4 895.84 746.99 889.15 747.04 889.15 749.22 887.88 775.41 872.71 799.42 858.84 799.46 858.84 801.65 860.11" class="st0"/>
      <polygon points="830.82 876.95 830.82 878.17 806.77 892.08 780.53 907.25 778.34 908.48 746.34 927.02 725.91 938.82 724.82 939.44 723.73 938.82 703.26 926.97 671.26 908.48 669.07 907.21 642.83 892.08 618.78 878.17 618.78 876.95 619.92 876.29 643.93 890.15 670.16 905.33 672.39 906.6 703.26 924.44 705.45 925.7 724.82 936.9 744.15 925.75 746.34 924.48 777.25 906.6 779.44 905.33 805.67 890.2 829.68 876.29 830.82 876.95" class="st0"/>
      <polygon points="725.91 938.17 725.91 1059.99 724.82 1060.61 723.73 1059.99 723.73 938.17 725.91 938.17" class="st0"/>
      <polygon points="708.77 948.57 672.3 969.69 670.12 970.96 643.97 986.14 619.92 1000.04 618.78 999.39 618.78 998.21 642.83 984.26 669.07 969.08 671.26 967.81 707.68 946.69 708.77 948.57" class="st0"/>
      <path d="M727.26,903.36c0,1.52-1.23,2.75-2.75,2.75s-2.75-1.23-2.75-2.75,1.23-2.75,2.75-2.75,2.75,1.23,2.75,2.75Z" class="st0"/>
      <path d="M711.52,947.39c0,1.52-1.23,2.75-2.75,2.75s-2.75-1.23-2.75-2.75,1.23-2.75,2.75-2.75,2.75,1.23,2.75,2.75Z" class="st0"/>
      <path d="M799.72,942.18c0,2.1-1.7,3.81-3.81,3.81s-3.81-1.7-3.81-3.81,1.71-3.81,3.81-3.81,3.81,1.71,3.81,3.81Z" class="st0"/>
      <path d="M729.14,1000.64c0,2.39-1.93,4.32-4.32,4.32s-4.32-1.93-4.32-4.32,1.93-4.32,4.32-4.32,4.32,1.93,4.32,4.32Z" class="st0"/>
      <path d="M729.14,936.9c0,2.39-1.93,4.32-4.32,4.32s-4.32-1.93-4.32-4.32,1.93-4.32,4.32-4.32,4.32,1.93,4.32,4.32Z" class="st0"/>
    </g>
  </g>
</svg>