<?xml version="1.0" encoding="utf-8" ?><svg xmlns="http://www.w3.org/2000/svg" xmlns:xlink="http://www.w3.org/1999/xlink" width="587" height="205" viewBox="0 0 587 205"><clipPath id="cl_3"><rect width="587" height="205"/></clipPath><g clip-path="url(#cl_3)"><path fill="#02A8F0" transform="translate(-217 -400)" d="M224.514 423.575L267.031 423.544L267.025 483.425C275.269 483.297 287.794 483.537 295.598 482.99C290.648 488.945 286.484 494.407 281.789 500.522C263.055 524.819 243.125 548.402 224.424 572.724C225.367 547.727 224.556 518.16 224.624 492.691L224.514 423.575Z"/><defs><linearGradient id="gradient_0" gradientUnits="userSpaceOnUse" x1="245.32301" y1="571.04156" x2="253.0838" y2="495.68634"><stop offset="0" stop-color="#1861C1"/><stop offset="1" stop-color="#069CE8"/></linearGradient></defs><path fill="url(#gradient_0)" transform="translate(-217 -400)" d="M224.624 492.691L225.453 495.49L225.698 493.553C227.837 493.305 231.72 493.798 233.995 493.958C247.488 494.911 264.262 496.447 277.329 499.88L279.99 498.91C281.45 499.65 280.865 499.141 281.789 500.522C263.055 524.819 243.125 548.402 224.424 572.724C225.367 547.727 224.556 518.16 224.624 492.691Z"/><path fill="#FFFFFF" transform="translate(-217 -400)" d="M358.4 434.878C359.573 436.081 359.013 479.759 359.013 485.976L359.026 584.477L332.936 584.53C328.029 584.543 321.304 584.353 316.557 585.012C317.027 576.875 316.83 567.493 316.832 559.25L316.919 521.835C308.733 521.509 298.255 521.92 289.69 521.822L358.4 434.878Z"/><path fill="#FFFFFF" transform="translate(-217 -400)" d="M713.131 474.164C727.223 472.932 739.685 483.264 741.086 497.34C742.487 511.417 732.305 524.001 718.247 525.571C709.002 526.603 699.915 522.584 694.459 515.05C689.003 507.515 688.019 497.629 691.883 489.167C695.748 480.705 703.864 474.975 713.131 474.164ZM718.716 516.234C723.768 514.265 727.233 512.311 729.554 506.901C731.395 502.519 731.418 497.585 729.617 493.187C728.005 489.205 724.798 486.08 720.775 484.573C717.841 483.45 715.644 483.429 712.572 483.556C710.377 484.49 708.326 485.29 706.375 486.75C696.134 494.417 698.471 511.891 710.993 515.719C714.032 516.648 715.518 516.628 718.716 516.234Z"/><path fill="#FFFFFF" transform="translate(-217 -400)" d="M618.447 475.238C626.207 475.134 634.777 474.727 642.339 476.418C659.638 480.286 658.387 499.178 644.086 506.654C647.803 512.459 652.036 518.083 655.502 524.022L644.043 523.98C640.499 518.798 636.964 513.764 633.787 508.344L623.689 508.183L623.558 524.157C620.362 524.088 616.794 524.195 613.566 524.222L613.475 492.862C613.464 488.248 613.211 480.128 613.684 475.758C614.924 475.106 616.973 475.26 618.447 475.238ZM623.477 499.634C629.589 499.634 637.637 500.524 642.587 496.994C651.795 483.035 631.783 484.353 623.554 484.402C623.545 489.25 623.673 494.847 623.477 499.634Z"/><path fill="#FFFFFF" transform="translate(-217 -400)" d="M752.9 475.075C768.031 474.854 800.985 471.059 792.96 497.17C791.44 502.117 787.466 504.375 783.054 506.329C786.353 511.912 791.074 518.6 794.739 524.091L787.878 524.195L783.403 524.385C780.969 519.987 775.614 512.431 772.663 507.994C769.425 507.959 766.106 508.014 762.861 508.03C763.119 513.314 763.003 518.827 762.977 524.134L753.034 524.348C753.162 508.309 753.245 491.063 752.9 475.075ZM781.28 497.602C794.416 484.724 770.428 483.95 763.193 484.008C763.56 488.625 762.743 494.696 762.886 499.822C769.11 499.685 775.751 500.226 781.28 497.602Z"/><path fill="#FFFFFF" transform="translate(-217 -400)" d="M515.325 475.381C528.244 475.58 552.107 471.838 554.099 490.064C554.639 494.757 553.267 499.47 550.293 503.14C546.415 507.9 542.044 509.16 536.318 509.797C532.696 509.938 528.943 509.958 525.308 510.022C525.168 514.799 525.177 519.578 525.334 524.354C522.268 524.174 518.387 524.255 515.253 524.24C515.311 508.565 514.578 490.748 515.325 475.381ZM525.316 501.493C531.176 501.517 536.102 501.934 541.435 499.031C544.462 495.804 547.21 490.9 542.647 487.53C537.798 483.95 531.021 484.417 525.277 484.502C525.292 489.368 525.592 496.848 525.316 501.493Z"/><path fill="#FFFFFF" transform="translate(-217 -400)" d="M266.303 531.841C266.66 533.27 266.819 542.014 266.841 543.978C266.987 557.476 266.883 570.989 266.964 584.501C253.851 584.76 240.734 584.86 227.618 584.801C224.267 587.718 218.011 594.646 214.719 598.094L214.178 598.029C215.11 595.849 224.89 583.53 227.142 580.711C240.245 564.307 253.462 548.492 266.303 531.841Z"/><path fill="#FFFFFF" transform="translate(-217 -400)" d="M564.591 475.468C576.123 475.017 589.942 475.493 601.713 475.483C601.618 478.947 601.592 480.968 601.897 484.41C593.172 484.711 583.343 484.493 574.536 484.494C574.291 487.856 574.382 491.785 574.388 495.205C582.022 494.927 590.839 495.126 598.564 495.117L598.525 504.021C590.58 503.974 582.636 504.039 574.694 504.217C574.35 505.872 574.335 513.616 574.306 515.745C583.344 515.364 593.13 515.495 602.225 515.454C602.164 518.402 602.208 521.502 602.203 524.464C594.108 523.715 573.586 524.169 564.749 524.351C565.074 511.191 564.778 497.941 564.915 484.771C564.947 481.66 564.966 478.559 564.591 475.468Z"/><path fill="#FFFFFF" transform="translate(-217 -400)" d="M439.472 475.546L449.595 475.522C449.582 481.626 450.143 522.415 448.906 524.236L447.297 524.24L439.735 524.36L439.821 503.975C432.748 503.937 425.675 503.955 418.602 504.03L418.475 523.997C415.164 524.008 411.819 524.08 408.505 524.128C409.054 508.038 408.858 491.616 408.868 475.488L418.462 475.618C418.383 482.045 418.394 488.474 418.496 494.901L439.602 494.624C439.462 488.395 440.284 481.54 439.472 475.546Z"/><path fill="#02A8F0" transform="translate(-217 -400)" d="M368.902 408.508C368.694 409.887 368.1 410.821 367.226 411.892C350.296 432.629 333.873 454.375 316.897 475.015C315.561 470.271 316.52 431.032 316.533 423.443C329.159 423.537 341.785 423.537 354.41 423.442C359.384 418.629 363.975 413.376 368.902 408.508Z"/><path fill="#FFFFFF" transform="translate(-217 -400)" d="M458.305 475.206C461.434 475.497 466.317 475.468 469.582 475.553C473.702 481.79 478.176 489.664 482.183 496.182C485.732 490.611 489.442 482.941 493.467 478.175C496.382 474.724 502.107 475.368 506.261 475.469C502.963 481.137 499.083 486.783 495.453 492.267C492.888 496.368 490.011 501.265 487.063 505.015C486.944 511.341 486.928 517.669 487.013 523.995C483.731 524.113 480.353 524.033 477.059 524.001C477.136 518.036 477.236 510.46 476.641 504.643C471.784 498.489 461.972 482.163 458.305 475.206Z"/><path fill="#FFFFFF" transform="translate(-217 -400)" d="M667.483 475.497L677.079 475.576C676.601 490.953 677.031 508.565 677.069 524.126L667.507 524.087C667.478 507.923 667.662 491.647 667.483 475.497Z"/><path fill="#02A8F0" transform="translate(-217 -400)" d="M292.192 498.414C295.923 493.749 302.306 484.484 307.702 482.594L308.61 482.948C308.888 486.469 299.618 497.077 296.946 500.204C296.601 500.603 296.251 501 295.898 501.392C294.796 500.267 293.465 499.366 292.192 498.414Z"/><path fill="#FFFFFF" transform="translate(-217 -400)" d="M284.6 508.419C286.202 509.055 287.335 509.348 288.589 510.533C285.989 514.011 280.945 521.954 276.512 522.3L275.97 521.704C276.231 518.051 282.069 511.592 284.6 508.419Z"/><path fill="#5B9ED9" transform="translate(-217 -400)" d="M292.192 498.414C293.465 499.366 294.796 500.267 295.898 501.392C293.505 504.474 291.069 507.521 288.589 510.533C287.335 509.348 286.202 509.055 284.6 508.419C286.175 505.875 290.219 500.958 292.192 498.414Z"/></g></svg>